<mxfile host="app.diagrams.net" modified="2021-06-02T10:50:25.269Z" agent="5.0 (Macintosh; Intel Mac OS X 10_15_7) AppleWebKit/537.36 (KHTML, like Gecko) Chrome/90.0.4430.212 Safari/537.36" etag="1SJO51Grqy1ifytcR8On" version="14.7.0" type="github">
  <diagram id="kgpKYQtTHZ0yAKxKKP6v" name="Page-1">
    <mxGraphModel dx="1298" dy="808" grid="1" gridSize="10" guides="1" tooltips="1" connect="1" arrows="1" fold="1" page="1" pageScale="1" pageWidth="850" pageHeight="1100" math="0" shadow="0">
      <root>
        <mxCell id="0" />
        <mxCell id="1" parent="0" />
        <mxCell id="3nuBFxr9cyL0pnOWT2aG-1" value="App" style="shape=umlLifeline;perimeter=lifelinePerimeter;container=1;collapsible=0;recursiveResize=0;rounded=0;shadow=0;strokeWidth=1;" parent="1" vertex="1">
          <mxGeometry x="120" y="80" width="100" height="1160" as="geometry" />
        </mxCell>
        <mxCell id="3nuBFxr9cyL0pnOWT2aG-2" value="" style="points=[];perimeter=orthogonalPerimeter;rounded=0;shadow=0;strokeWidth=1;" parent="3nuBFxr9cyL0pnOWT2aG-1" vertex="1">
          <mxGeometry x="45" y="70" width="10" height="40" as="geometry" />
        </mxCell>
        <mxCell id="3nuBFxr9cyL0pnOWT2aG-3" value="版本检测" style="verticalAlign=bottom;startArrow=oval;endArrow=block;startSize=8;shadow=0;strokeWidth=1;" parent="3nuBFxr9cyL0pnOWT2aG-1" target="3nuBFxr9cyL0pnOWT2aG-2" edge="1">
          <mxGeometry relative="1" as="geometry">
            <mxPoint x="-10" y="70" as="sourcePoint" />
          </mxGeometry>
        </mxCell>
        <mxCell id="3nuBFxr9cyL0pnOWT2aG-5" value="shizi-inclass" style="shape=umlLifeline;perimeter=lifelinePerimeter;container=1;collapsible=0;recursiveResize=0;rounded=0;shadow=0;strokeWidth=1;" parent="1" vertex="1">
          <mxGeometry x="470" y="80" width="100" height="1160" as="geometry" />
        </mxCell>
        <mxCell id="3nuBFxr9cyL0pnOWT2aG-6" value="" style="points=[];perimeter=orthogonalPerimeter;rounded=0;shadow=0;strokeWidth=1;" parent="3nuBFxr9cyL0pnOWT2aG-5" vertex="1">
          <mxGeometry x="45" y="130" width="10" height="550" as="geometry" />
        </mxCell>
        <mxCell id="3nuBFxr9cyL0pnOWT2aG-8" value="1、/api/version/data&#xa;【版本检查】" style="verticalAlign=bottom;endArrow=block;entryX=0;entryY=0;shadow=0;strokeWidth=1;fontColor=#FF3333;" parent="1" source="3nuBFxr9cyL0pnOWT2aG-2" edge="1">
          <mxGeometry relative="1" as="geometry">
            <mxPoint x="275" y="160" as="sourcePoint" />
            <mxPoint x="515" y="160.00000000000068" as="targetPoint" />
          </mxGeometry>
        </mxCell>
        <mxCell id="nXwSPb9PZvytVuEYN243-1" value="" style="points=[];perimeter=orthogonalPerimeter;rounded=0;shadow=0;strokeWidth=1;" vertex="1" parent="1">
          <mxGeometry x="165" y="210" width="10" height="550" as="geometry" />
        </mxCell>
        <mxCell id="nXwSPb9PZvytVuEYN243-2" value="进入大地图" style="verticalAlign=bottom;startArrow=oval;endArrow=block;startSize=8;shadow=0;strokeWidth=1;entryX=0.1;entryY=0.011;entryDx=0;entryDy=0;entryPerimeter=0;" edge="1" parent="1" target="nXwSPb9PZvytVuEYN243-1">
          <mxGeometry relative="1" as="geometry">
            <mxPoint x="110" y="226" as="sourcePoint" />
            <mxPoint x="175" y="210" as="targetPoint" />
          </mxGeometry>
        </mxCell>
        <mxCell id="nXwSPb9PZvytVuEYN243-4" value="2.2、/api/user/info&#xa;【用户信息】" style="verticalAlign=bottom;endArrow=block;entryX=0;entryY=0;shadow=0;strokeWidth=1;fontColor=#FF3333;" edge="1" parent="1">
          <mxGeometry relative="1" as="geometry">
            <mxPoint x="175" y="279.5000000000001" as="sourcePoint" />
            <mxPoint x="515" y="279.5000000000001" as="targetPoint" />
          </mxGeometry>
        </mxCell>
        <mxCell id="nXwSPb9PZvytVuEYN243-5" value="用户信息、学习速度、积分等" style="verticalAlign=bottom;endArrow=block;shadow=0;strokeWidth=1;dashed=1;" edge="1" parent="1">
          <mxGeometry relative="1" as="geometry">
            <mxPoint x="515" y="304.5" as="sourcePoint" />
            <mxPoint x="180" y="304.5" as="targetPoint" />
          </mxGeometry>
        </mxCell>
        <mxCell id="nXwSPb9PZvytVuEYN243-6" value="2.3、/api/learn-progress/studyinfo&#xa;【学习记录】" style="verticalAlign=bottom;endArrow=block;entryX=0;entryY=0;shadow=0;strokeWidth=1;fontColor=#FF3333;" edge="1" parent="1">
          <mxGeometry relative="1" as="geometry">
            <mxPoint x="175" y="350" as="sourcePoint" />
            <mxPoint x="515" y="350" as="targetPoint" />
          </mxGeometry>
        </mxCell>
        <mxCell id="nXwSPb9PZvytVuEYN243-8" value="" style="points=[];perimeter=orthogonalPerimeter;rounded=0;shadow=0;strokeWidth=1;" vertex="1" parent="1">
          <mxGeometry x="170" y="280" width="10" height="50" as="geometry" />
        </mxCell>
        <mxCell id="nXwSPb9PZvytVuEYN243-9" value="" style="points=[];perimeter=orthogonalPerimeter;rounded=0;shadow=0;strokeWidth=1;" vertex="1" parent="1">
          <mxGeometry x="170" y="350" width="10" height="50" as="geometry" />
        </mxCell>
        <mxCell id="nXwSPb9PZvytVuEYN243-10" value="学习天数、学习字数等" style="verticalAlign=bottom;endArrow=block;shadow=0;strokeWidth=1;dashed=1;" edge="1" parent="1">
          <mxGeometry relative="1" as="geometry">
            <mxPoint x="515" y="374.5" as="sourcePoint" />
            <mxPoint x="180" y="374.5" as="targetPoint" />
          </mxGeometry>
        </mxCell>
        <mxCell id="nXwSPb9PZvytVuEYN243-11" value="2.4、/api/word/template/list&#xa;【获取字模版列表】" style="verticalAlign=bottom;endArrow=block;entryX=0;entryY=0;shadow=0;strokeWidth=1;" edge="1" parent="1">
          <mxGeometry relative="1" as="geometry">
            <mxPoint x="175" y="420" as="sourcePoint" />
            <mxPoint x="515" y="420" as="targetPoint" />
          </mxGeometry>
        </mxCell>
        <mxCell id="nXwSPb9PZvytVuEYN243-12" value="模版资源列表" style="verticalAlign=bottom;endArrow=block;shadow=0;strokeWidth=1;dashed=1;" edge="1" parent="1">
          <mxGeometry relative="1" as="geometry">
            <mxPoint x="515" y="444" as="sourcePoint" />
            <mxPoint x="180" y="444" as="targetPoint" />
          </mxGeometry>
        </mxCell>
        <mxCell id="nXwSPb9PZvytVuEYN243-13" value="" style="points=[];perimeter=orthogonalPerimeter;rounded=0;shadow=0;strokeWidth=1;" vertex="1" parent="1">
          <mxGeometry x="170" y="420" width="10" height="50" as="geometry" />
        </mxCell>
        <mxCell id="nXwSPb9PZvytVuEYN243-15" value="2.5、/api/task/words/todayProgress&#xa;【获取今天的学习进度】" style="verticalAlign=bottom;endArrow=block;entryX=0;entryY=0;shadow=0;strokeWidth=1;fontColor=#FF3333;" edge="1" parent="1">
          <mxGeometry relative="1" as="geometry">
            <mxPoint x="175" y="490" as="sourcePoint" />
            <mxPoint x="515" y="490" as="targetPoint" />
          </mxGeometry>
        </mxCell>
        <mxCell id="nXwSPb9PZvytVuEYN243-16" value="模版资源列表" style="verticalAlign=bottom;endArrow=block;shadow=0;strokeWidth=1;dashed=1;" edge="1" parent="1">
          <mxGeometry relative="1" as="geometry">
            <mxPoint x="515" y="515" as="sourcePoint" />
            <mxPoint x="180" y="515" as="targetPoint" />
          </mxGeometry>
        </mxCell>
        <mxCell id="nXwSPb9PZvytVuEYN243-17" value="" style="points=[];perimeter=orthogonalPerimeter;rounded=0;shadow=0;strokeWidth=1;" vertex="1" parent="1">
          <mxGeometry x="170" y="490" width="10" height="50" as="geometry" />
        </mxCell>
        <mxCell id="nXwSPb9PZvytVuEYN243-18" value="2.6、/api/word/current/list&#xa;【获取字的排序】" style="verticalAlign=bottom;endArrow=block;entryX=0;entryY=0;shadow=0;strokeWidth=1;" edge="1" parent="1">
          <mxGeometry relative="1" as="geometry">
            <mxPoint x="175" y="570" as="sourcePoint" />
            <mxPoint x="515" y="570" as="targetPoint" />
          </mxGeometry>
        </mxCell>
        <mxCell id="nXwSPb9PZvytVuEYN243-19" value="返回字排序" style="verticalAlign=bottom;endArrow=block;shadow=0;strokeWidth=1;dashed=1;" edge="1" parent="1">
          <mxGeometry relative="1" as="geometry">
            <mxPoint x="515" y="600" as="sourcePoint" />
            <mxPoint x="180" y="600" as="targetPoint" />
          </mxGeometry>
        </mxCell>
        <mxCell id="nXwSPb9PZvytVuEYN243-20" value="" style="points=[];perimeter=orthogonalPerimeter;rounded=0;shadow=0;strokeWidth=1;" vertex="1" parent="1">
          <mxGeometry x="170" y="570" width="10" height="50" as="geometry" />
        </mxCell>
        <mxCell id="nXwSPb9PZvytVuEYN243-21" value="2.7、/api/word/map/list&#xa;【获取大地图字数据】" style="verticalAlign=bottom;endArrow=block;entryX=0;entryY=0;shadow=0;strokeWidth=1;fontColor=#FF3333;" edge="1" parent="1">
          <mxGeometry relative="1" as="geometry">
            <mxPoint x="175" y="650" as="sourcePoint" />
            <mxPoint x="515" y="650" as="targetPoint" />
          </mxGeometry>
        </mxCell>
        <mxCell id="nXwSPb9PZvytVuEYN243-22" value="返回字资源、是否已学习状态、今天带学习状态" style="verticalAlign=bottom;endArrow=block;shadow=0;strokeWidth=1;dashed=1;" edge="1" parent="1">
          <mxGeometry relative="1" as="geometry">
            <mxPoint x="515" y="680" as="sourcePoint" />
            <mxPoint x="180" y="680" as="targetPoint" />
          </mxGeometry>
        </mxCell>
        <mxCell id="nXwSPb9PZvytVuEYN243-23" value="" style="points=[];perimeter=orthogonalPerimeter;rounded=0;shadow=0;strokeWidth=1;" vertex="1" parent="1">
          <mxGeometry x="170" y="650" width="10" height="50" as="geometry" />
        </mxCell>
        <mxCell id="nXwSPb9PZvytVuEYN243-24" value="" style="points=[];perimeter=orthogonalPerimeter;rounded=0;shadow=0;strokeWidth=1;" vertex="1" parent="1">
          <mxGeometry x="165" y="780" width="10" height="340" as="geometry" />
        </mxCell>
        <mxCell id="nXwSPb9PZvytVuEYN243-25" value="进入学习" style="verticalAlign=bottom;startArrow=oval;endArrow=block;startSize=8;shadow=0;strokeWidth=1;entryX=0.1;entryY=0.011;entryDx=0;entryDy=0;entryPerimeter=0;" edge="1" parent="1">
          <mxGeometry relative="1" as="geometry">
            <mxPoint x="109" y="780" as="sourcePoint" />
            <mxPoint x="165" y="780.3900000000001" as="targetPoint" />
          </mxGeometry>
        </mxCell>
        <mxCell id="nXwSPb9PZvytVuEYN243-26" value="3.1、/api/learn-progress/round/report&#xa;【上报环节完成】（每个环节都上传）" style="verticalAlign=bottom;endArrow=block;entryX=0;entryY=0;shadow=0;strokeWidth=1;fontColor=#3333FF;" edge="1" parent="1">
          <mxGeometry relative="1" as="geometry">
            <mxPoint x="175" y="790" as="sourcePoint" />
            <mxPoint x="515" y="790" as="targetPoint" />
          </mxGeometry>
        </mxCell>
        <mxCell id="nXwSPb9PZvytVuEYN243-27" value="" style="points=[];perimeter=orthogonalPerimeter;rounded=0;shadow=0;strokeWidth=1;" vertex="1" parent="1">
          <mxGeometry x="515" y="780" width="10" height="340" as="geometry" />
        </mxCell>
        <mxCell id="nXwSPb9PZvytVuEYN243-28" value="3.2、/api/reward/word/round/info&#xa;【获取每个环节的积分奖励情况】" style="verticalAlign=bottom;endArrow=block;entryX=0;entryY=0;shadow=0;strokeWidth=1;fontColor=#3333FF;" edge="1" parent="1">
          <mxGeometry relative="1" as="geometry">
            <mxPoint x="175" y="840" as="sourcePoint" />
            <mxPoint x="515" y="840" as="targetPoint" />
          </mxGeometry>
        </mxCell>
        <mxCell id="nXwSPb9PZvytVuEYN243-29" value="每个环节是否领过奖励" style="verticalAlign=bottom;endArrow=block;shadow=0;strokeWidth=1;dashed=1;" edge="1" parent="1">
          <mxGeometry relative="1" as="geometry">
            <mxPoint x="515" y="870" as="sourcePoint" />
            <mxPoint x="180" y="870" as="targetPoint" />
          </mxGeometry>
        </mxCell>
        <mxCell id="nXwSPb9PZvytVuEYN243-30" value="" style="points=[];perimeter=orthogonalPerimeter;rounded=0;shadow=0;strokeWidth=1;" vertex="1" parent="1">
          <mxGeometry x="170" y="840" width="10" height="50" as="geometry" />
        </mxCell>
        <mxCell id="nXwSPb9PZvytVuEYN243-31" value="3.3、/api/cos/sts&#xa;【获取上传文件的密钥】" style="verticalAlign=bottom;endArrow=block;entryX=0;entryY=0;shadow=0;strokeWidth=1;fontColor=#3333FF;" edge="1" parent="1">
          <mxGeometry relative="1" as="geometry">
            <mxPoint x="175" y="920" as="sourcePoint" />
            <mxPoint x="515" y="920" as="targetPoint" />
          </mxGeometry>
        </mxCell>
        <mxCell id="nXwSPb9PZvytVuEYN243-32" value="返回临时密钥信息，含过期时间" style="verticalAlign=bottom;endArrow=block;shadow=0;strokeWidth=1;dashed=1;" edge="1" parent="1">
          <mxGeometry relative="1" as="geometry">
            <mxPoint x="515" y="950" as="sourcePoint" />
            <mxPoint x="180" y="950" as="targetPoint" />
          </mxGeometry>
        </mxCell>
        <mxCell id="nXwSPb9PZvytVuEYN243-33" value="" style="points=[];perimeter=orthogonalPerimeter;rounded=0;shadow=0;strokeWidth=1;" vertex="1" parent="1">
          <mxGeometry x="170" y="920" width="10" height="50" as="geometry" />
        </mxCell>
        <mxCell id="nXwSPb9PZvytVuEYN243-34" value="3.4、/api/course/upload&#xa;【上传跟读/写字】（环节结束统一上传）" style="verticalAlign=bottom;endArrow=block;entryX=0;entryY=0;shadow=0;strokeWidth=1;fontColor=#3333FF;" edge="1" parent="1">
          <mxGeometry relative="1" as="geometry">
            <mxPoint x="175" y="1000" as="sourcePoint" />
            <mxPoint x="515" y="1000" as="targetPoint" />
          </mxGeometry>
        </mxCell>
        <mxCell id="nXwSPb9PZvytVuEYN243-35" value="3.5、/api/learn-progress/word/done&#xa;【字完成上报】" style="verticalAlign=bottom;endArrow=block;entryX=0;entryY=0;shadow=0;strokeWidth=1;fontColor=#3333FF;" edge="1" parent="1">
          <mxGeometry relative="1" as="geometry">
            <mxPoint x="175" y="1040" as="sourcePoint" />
            <mxPoint x="515" y="1040" as="targetPoint" />
          </mxGeometry>
        </mxCell>
        <mxCell id="nXwSPb9PZvytVuEYN243-36" value="2.1、/api/hall/getInfo&#xa;【获取大厅信息】" style="verticalAlign=bottom;endArrow=block;entryX=0;entryY=0;shadow=0;strokeWidth=1;fontColor=#FF3333;" edge="1" parent="1">
          <mxGeometry relative="1" as="geometry">
            <mxPoint x="175" y="220" as="sourcePoint" />
            <mxPoint x="515" y="220" as="targetPoint" />
          </mxGeometry>
        </mxCell>
        <mxCell id="nXwSPb9PZvytVuEYN243-37" value="活动信息、资源位信息" style="verticalAlign=bottom;endArrow=block;shadow=0;strokeWidth=1;dashed=1;" edge="1" parent="1">
          <mxGeometry relative="1" as="geometry">
            <mxPoint x="515" y="240" as="sourcePoint" />
            <mxPoint x="180" y="240" as="targetPoint" />
          </mxGeometry>
        </mxCell>
        <mxCell id="nXwSPb9PZvytVuEYN243-38" value="" style="points=[];perimeter=orthogonalPerimeter;rounded=0;shadow=0;strokeWidth=1;" vertex="1" parent="1">
          <mxGeometry x="170" y="220" width="10" height="50" as="geometry" />
        </mxCell>
      </root>
    </mxGraphModel>
  </diagram>
</mxfile>
